<svg id="SvgjsSvg1006" width="1117.4444732666016" height="923" xmlns="http://www.w3.org/2000/svg" version="1.1" xmlns:xlink="http://www.w3.org/1999/xlink" xmlns:svgjs="http://svgjs.com/svgjs"><defs id="SvgjsDefs1007"><marker id="SvgjsMarker1058" markerWidth="16" markerHeight="12" refX="16" refY="6" viewBox="0 0 16 12" orient="auto" markerUnits="userSpaceOnUse"><path id="SvgjsPath1059" d="M0,2 L14,6 L0,11 L0,2" fill="#323232" stroke="#323232" stroke-width="2"></path></marker><marker id="SvgjsMarker1062" markerWidth="16" markerHeight="12" refX="16" refY="6" viewBox="0 0 16 12" orient="auto" markerUnits="userSpaceOnUse"><path id="SvgjsPath1063" d="M0,2 L14,6 L0,11 L0,2" fill="#323232" stroke="#323232" stroke-width="2"></path></marker><marker id="SvgjsMarker1078" markerWidth="16" markerHeight="12" refX="16" refY="6" viewBox="0 0 16 12" orient="auto" markerUnits="userSpaceOnUse"><path id="SvgjsPath1079" d="M0,2 L14,6 L0,11 L0,2" fill="#323232" stroke="#323232" stroke-width="2"></path></marker><marker id="SvgjsMarker1092" markerWidth="16" markerHeight="12" refX="16" refY="6" viewBox="0 0 16 12" orient="auto" markerUnits="userSpaceOnUse"><path id="SvgjsPath1093" d="M0,2 L14,6 L0,11 L0,2" fill="#323232" stroke="#323232" stroke-width="2"></path></marker><marker id="SvgjsMarker1102" markerWidth="16" markerHeight="12" refX="16" refY="6" viewBox="0 0 16 12" orient="auto" markerUnits="userSpaceOnUse"><path id="SvgjsPath1103" d="M0,2 L14,6 L0,11 L0,2" fill="#323232" stroke="#323232" stroke-width="2"></path></marker><marker id="SvgjsMarker1106" markerWidth="16" markerHeight="12" refX="16" refY="6" viewBox="0 0 16 12" orient="auto" markerUnits="userSpaceOnUse"><path id="SvgjsPath1107" d="M0,2 L14,6 L0,11 L0,2" fill="#323232" stroke="#323232" stroke-width="2"></path></marker><marker id="SvgjsMarker1134" markerWidth="16" markerHeight="12" refX="16" refY="6" viewBox="0 0 16 12" orient="auto" markerUnits="userSpaceOnUse"><path id="SvgjsPath1135" d="M0,2 L14,6 L0,11 L0,2" fill="#323232" stroke="#323232" stroke-width="2"></path></marker><marker id="SvgjsMarker1142" markerWidth="16" markerHeight="12" refX="16" refY="6" viewBox="0 0 16 12" orient="auto" markerUnits="userSpaceOnUse"><path id="SvgjsPath1143" d="M0,2 L14,6 L0,11 L0,2" fill="#323232" stroke="#323232" stroke-width="2"></path></marker><marker id="SvgjsMarker1167" markerWidth="16" markerHeight="12" refX="16" refY="6" viewBox="0 0 16 12" orient="auto" markerUnits="userSpaceOnUse"><path id="SvgjsPath1168" d="M0,2 L14,6 L0,11 L0,2" fill="#323232" stroke="#323232" stroke-width="2"></path></marker><marker id="SvgjsMarker1177" markerWidth="16" markerHeight="12" refX="16" refY="6" viewBox="0 0 16 12" orient="auto" markerUnits="userSpaceOnUse"><path id="SvgjsPath1178" d="M0,2 L14,6 L0,11 L0,2" fill="#323232" stroke="#323232" stroke-width="2"></path></marker><marker id="SvgjsMarker1185" markerWidth="16" markerHeight="12" refX="16" refY="6" viewBox="0 0 16 12" orient="auto" markerUnits="userSpaceOnUse"><path id="SvgjsPath1186" d="M0,2 L14,6 L0,11 L0,2" fill="#323232" stroke="#323232" stroke-width="2"></path></marker><marker id="SvgjsMarker1195" markerWidth="16" markerHeight="12" refX="16" refY="6" viewBox="0 0 16 12" orient="auto" markerUnits="userSpaceOnUse"><path id="SvgjsPath1196" d="M0,2 L14,6 L0,11 L0,2" fill="#323232" stroke="#323232" stroke-width="2"></path></marker><marker id="SvgjsMarker1199" markerWidth="16" markerHeight="12" refX="16" refY="6" viewBox="0 0 16 12" orient="auto" markerUnits="userSpaceOnUse"><path id="SvgjsPath1200" d="M0,2 L14,6 L0,11 L0,2" fill="#323232" stroke="#323232" stroke-width="2"></path></marker><marker id="SvgjsMarker1207" markerWidth="16" markerHeight="12" refX="16" refY="6" viewBox="0 0 16 12" orient="auto" markerUnits="userSpaceOnUse"><path id="SvgjsPath1208" d="M0,2 L14,6 L0,11 L0,2" fill="#323232" stroke="#323232" stroke-width="2"></path></marker><marker id="SvgjsMarker1227" markerWidth="16" markerHeight="12" refX="16" refY="6" viewBox="0 0 16 12" orient="auto" markerUnits="userSpaceOnUse"><path id="SvgjsPath1228" d="M0,2 L14,6 L0,11 L0,2" fill="#323232" stroke="#323232" stroke-width="2"></path></marker><marker id="SvgjsMarker1237" markerWidth="16" markerHeight="12" refX="16" refY="6" viewBox="0 0 16 12" orient="auto" markerUnits="userSpaceOnUse"><path id="SvgjsPath1238" d="M0,2 L14,6 L0,11 L0,2" fill="#323232" stroke="#323232" stroke-width="2"></path></marker><marker id="SvgjsMarker1241" markerWidth="16" markerHeight="12" refX="16" refY="6" viewBox="0 0 16 12" orient="auto" markerUnits="userSpaceOnUse"><path id="SvgjsPath1242" d="M0,2 L14,6 L0,11 L0,2" fill="#323232" stroke="#323232" stroke-width="2"></path></marker><marker id="SvgjsMarker1245" markerWidth="16" markerHeight="12" refX="16" refY="6" viewBox="0 0 16 12" orient="auto" markerUnits="userSpaceOnUse"><path id="SvgjsPath1246" d="M0,2 L14,6 L0,11 L0,2" fill="#323232" stroke="#323232" stroke-width="2"></path></marker><marker id="SvgjsMarker1257" markerWidth="16" markerHeight="12" refX="16" refY="6" viewBox="0 0 16 12" orient="auto" markerUnits="userSpaceOnUse"><path id="SvgjsPath1258" d="M0,2 L14,6 L0,11 L0,2" fill="#323232" stroke="#323232" stroke-width="2"></path></marker><marker id="SvgjsMarker1267" markerWidth="16" markerHeight="12" refX="16" refY="6" viewBox="0 0 16 12" orient="auto" markerUnits="userSpaceOnUse"><path id="SvgjsPath1268" d="M0,2 L14,6 L0,11 L0,2" fill="#323232" stroke="#323232" stroke-width="2"></path></marker><marker id="SvgjsMarker1271" markerWidth="16" markerHeight="12" refX="16" refY="6" viewBox="0 0 16 12" orient="auto" markerUnits="userSpaceOnUse"><path id="SvgjsPath1272" d="M0,2 L14,6 L0,11 L0,2" fill="#323232" stroke="#323232" stroke-width="2"></path></marker><marker id="SvgjsMarker1279" markerWidth="16" markerHeight="12" refX="16" refY="6" viewBox="0 0 16 12" orient="auto" markerUnits="userSpaceOnUse"><path id="SvgjsPath1280" d="M0,2 L14,6 L0,11 L0,2" fill="#323232" stroke="#323232" stroke-width="2"></path></marker><marker id="SvgjsMarker1283" markerWidth="16" markerHeight="12" refX="16" refY="6" viewBox="0 0 16 12" orient="auto" markerUnits="userSpaceOnUse"><path id="SvgjsPath1284" d="M0,2 L14,6 L0,11 L0,2" fill="#323232" stroke="#323232" stroke-width="2"></path></marker><marker id="SvgjsMarker1287" markerWidth="16" markerHeight="12" refX="16" refY="6" viewBox="0 0 16 12" orient="auto" markerUnits="userSpaceOnUse"><path id="SvgjsPath1288" d="M0,2 L14,6 L0,11 L0,2" fill="#323232" stroke="#323232" stroke-width="2"></path></marker><marker id="SvgjsMarker1297" markerWidth="16" markerHeight="12" refX="16" refY="6" viewBox="0 0 16 12" orient="auto" markerUnits="userSpaceOnUse"><path id="SvgjsPath1298" d="M0,2 L14,6 L0,11 L0,2" fill="#323232" stroke="#323232" stroke-width="2"></path></marker><marker id="SvgjsMarker1301" markerWidth="16" markerHeight="12" refX="16" refY="6" viewBox="0 0 16 12" orient="auto" markerUnits="userSpaceOnUse"><path id="SvgjsPath1302" d="M0,2 L14,6 L0,11 L0,2" fill="#323232" stroke="#323232" stroke-width="2"></path></marker><marker id="SvgjsMarker1309" markerWidth="16" markerHeight="12" refX="16" refY="6" viewBox="0 0 16 12" orient="auto" markerUnits="userSpaceOnUse"><path id="SvgjsPath1310" d="M0,2 L14,6 L0,11 L0,2" fill="#323232" stroke="#323232" stroke-width="2"></path></marker><marker id="SvgjsMarker1319" markerWidth="16" markerHeight="12" refX="16" refY="6" viewBox="0 0 16 12" orient="auto" markerUnits="userSpaceOnUse"><path id="SvgjsPath1320" d="M0,2 L14,6 L0,11 L0,2" fill="#323232" stroke="#323232" stroke-width="2"></path></marker><marker id="SvgjsMarker1323" markerWidth="16" markerHeight="12" refX="16" refY="6" viewBox="0 0 16 12" orient="auto" markerUnits="userSpaceOnUse"><path id="SvgjsPath1324" d="M0,2 L14,6 L0,11 L0,2" fill="#323232" stroke="#323232" stroke-width="2"></path></marker></defs><g id="SvgjsG1008" transform="translate(25.01190185546875,25)"><path id="SvgjsPath1009" d="M 0 0L 308.7936553955078 0L 308.7936553955078 867.4444351196289L 0 867.4444351196289Z" stroke="#323232" stroke-width="2" fill="none"></path><path id="SvgjsPath1010" d="M 0 0L 308.7936553955078 0L 308.7936553955078 40L 0 40Z" stroke="#323232" stroke-width="2" fill-opacity="1" fill="#ffffff"></path><g id="SvgjsG1011"><text id="SvgjsText1012" font-family="微软雅黑" text-anchor="middle" font-size="16px" width="32" fill="#323232" font-weight="400" align="middle" anchor="middle" family="微软雅黑" size="16px" weight="400" font-style="" y="7.6" transform="rotate(0)"><tspan id="SvgjsTspan1013" dy="20" x="154.5"><tspan id="SvgjsTspan1014" style="text-decoration:;">登录</tspan></tspan></text></g></g><g id="SvgjsG1015" transform="translate(333.80555725097656,25)"><path id="SvgjsPath1016" d="M 0 0L 250 0L 250 873.4444351196289L 0 873.4444351196289Z" stroke="#323232" stroke-width="2" fill="none"></path><path id="SvgjsPath1017" d="M 0 0L 250 0L 250 40L 0 40Z" stroke="#323232" stroke-width="2" fill-opacity="1" fill="#ffffff"></path><g id="SvgjsG1018"><text id="SvgjsText1019" font-family="微软雅黑" text-anchor="middle" font-size="16px" width="48" fill="#323232" font-weight="400" align="middle" anchor="middle" family="微软雅黑" size="16px" weight="400" font-style="" y="7.6" transform="rotate(0)"><tspan id="SvgjsTspan1020" dy="20" x="125"><tspan id="SvgjsTspan1021" style="text-decoration:;">主页面</tspan></tspan></text></g></g><g id="SvgjsG1022" transform="translate(582.6458358764648,25.500003814697266)"><path id="SvgjsPath1023" d="M 0 0L 260.7986068725586 0L 260.7986068725586 872.4444274902344L 0 872.4444274902344Z" stroke="#323232" stroke-width="2" fill="none"></path><path id="SvgjsPath1024" d="M 0 0L 260.7986068725586 0L 260.7986068725586 40L 0 40Z" stroke="#323232" stroke-width="2" fill-opacity="1" fill="#ffffff"></path><g id="SvgjsG1025"><text id="SvgjsText1026" font-family="微软雅黑" text-anchor="middle" font-size="16px" width="96" fill="#323232" font-weight="400" align="middle" anchor="middle" family="微软雅黑" size="16px" weight="400" font-style="" y="7.6" transform="rotate(0)"><tspan id="SvgjsTspan1027" dy="20" x="130.5"><tspan id="SvgjsTspan1028" style="text-decoration:;">web后台服务</tspan></tspan></text></g></g><g id="SvgjsG1029" transform="translate(843.4444427490234,25.500003814697266)"><path id="SvgjsPath1030" d="M 0 0L 250 0L 250 872.4444274902344L 0 872.4444274902344Z" stroke="#323232" stroke-width="2" fill="none"></path><path id="SvgjsPath1031" d="M 0 0L 250 0L 250 40L 0 40Z" stroke="#323232" stroke-width="2" fill-opacity="1" fill="#ffffff"></path><g id="SvgjsG1032"><text id="SvgjsText1033" font-family="微软雅黑" text-anchor="middle" font-size="16px" width="64" fill="#323232" font-weight="400" align="middle" anchor="middle" family="微软雅黑" size="16px" weight="400" font-style="" y="7.6" transform="rotate(0)"><tspan id="SvgjsTspan1034" dy="20" x="125"><tspan id="SvgjsTspan1035" style="text-decoration:;">日志系统</tspan></tspan></text></g></g><g id="SvgjsG1036" transform="translate(99.45159701252891,83.72222137451173)"><path id="SvgjsPath1037" d="M 16.666666666666668 0L 83.33333333333333 0C 105.55555555555556 0 105.55555555555556 50 83.33333333333333 50L 16.666666666666668 50C -5.555555555555556 50 -5.555555555555556 0 16.666666666666668 0Z" stroke="#323232" stroke-width="2" fill-opacity="1" fill="#ffffff"></path><g id="SvgjsG1038"><text id="SvgjsText1039" font-family="微软雅黑" text-anchor="middle" font-size="13px" width="52" fill="#323232" font-weight="400" align="middle" anchor="middle" family="微软雅黑" size="13px" weight="400" font-style="" y="15.05" transform="rotate(0)"><tspan id="SvgjsTspan1040" dy="16" x="50"><tspan id="SvgjsTspan1041" style="text-decoration:;">启动应用</tspan></tspan></text></g></g><g id="SvgjsG1042" transform="translate(90.0761661807581,171.57539258684432)"><path id="SvgjsPath1043" d="M 0 0L 119 0L 119 69L 0 69Z" stroke="#323232" stroke-width="2" fill-opacity="1" fill="#ffffff"></path><g id="SvgjsG1044"><text id="SvgjsText1045" font-family="微软雅黑" text-anchor="middle" font-size="13px" width="68" fill="#323232" font-weight="400" align="middle" anchor="middle" family="微软雅黑" size="13px" weight="400" font-style="" y="24.55" transform="rotate(0)"><tspan id="SvgjsTspan1046" dy="16" x="59.5"><tspan id="SvgjsTspan1047" style="text-decoration:;">读取cookie</tspan></tspan></text></g></g><g id="SvgjsG1048" transform="translate(104.62372448979599,274.89682115827287)"><path id="SvgjsPath1049" d="M 0 35L 45 0L 90 35L 45 70L 0 35Z" stroke="#323232" stroke-width="2" fill-opacity="1" fill="#ffffff"></path><g id="SvgjsG1050"><text id="SvgjsText1051" font-family="微软雅黑" text-anchor="middle" font-size="13px" width="67" fill="#323232" font-weight="400" align="middle" anchor="middle" family="微软雅黑" size="13px" weight="400" font-style="" y="17.05" transform="rotate(0)"><tspan id="SvgjsTspan1052" dy="16" x="45"><tspan id="SvgjsTspan1053" style="text-decoration:;">判断cookie</tspan></tspan><tspan id="SvgjsTspan1054" dy="16" x="45"><tspan id="SvgjsTspan1055" style="text-decoration:;">值</tspan></tspan></text></g></g><g id="SvgjsG1056"><path id="SvgjsPath1057" d="M149.57616618075807 240.57539258684432L149.57616618075807 257.7361068725586L149.62372448979602 257.7361068725586L149.62372448979602 274.89682115827287" stroke="#323232" stroke-width="2" fill="none" marker-end="url(#SvgjsMarker1058)"></path></g><g id="SvgjsG1060"><path id="SvgjsPath1061" d="M149.45159701252896 133.72222137451175L149.45159701252896 152.64880698067805L149.57616618075807 152.64880698067805L149.57616618075807 171.57539258684432" stroke="#323232" stroke-width="2" fill="none" marker-end="url(#SvgjsMarker1062)"></path></g><g id="SvgjsG1064" transform="translate(52.10714285714285,229.66666412353516)"><path id="SvgjsPath1065" d="M 0 0L 160 0L 160 40L 0 40Z" stroke="none" fill="none"></path><g id="SvgjsG1066"><text id="SvgjsText1067" font-family="微软雅黑" text-anchor="middle" font-size="13px" width="78" fill="#323232" font-weight="400" align="middle" anchor="middle" family="微软雅黑" size="13px" weight="400" font-style="" y="10.05" transform="rotate(0)"><tspan id="SvgjsTspan1068" dy="16" x="80"><tspan id="SvgjsTspan1069" style="text-decoration:;">存在用户信息</tspan></tspan></text></g></g><g id="SvgjsG1070" transform="translate(99.82142857142857,369.68253544398704)"><path id="SvgjsPath1071" d="M 0 0L 100 0L 100 70L 0 70Z" stroke="#323232" stroke-width="2" fill-opacity="1" fill="#ffffff"></path><g id="SvgjsG1072"><text id="SvgjsText1073" font-family="微软雅黑" text-anchor="middle" font-size="13px" width="39" fill="#323232" font-weight="400" align="middle" anchor="middle" family="微软雅黑" size="13px" weight="400" font-style="" y="25.05" transform="rotate(0)"><tspan id="SvgjsTspan1074" dy="16" x="50"><tspan id="SvgjsTspan1075" style="text-decoration:;">登录页</tspan></tspan></text></g></g><g id="SvgjsG1076"><path id="SvgjsPath1077" d="M149.62372448979602 344.89682115827287L149.62372448979602 357.2896783011299L149.82142857142858 357.2896783011299L149.82142857142858 369.68253544398704" stroke="#323232" stroke-width="2" fill="none" marker-end="url(#SvgjsMarker1078)"></path><rect id="SvgjsRect1080" width="91" height="16" x="104.22257653061234" y="349.2896783011299" fill="#ffffff"></rect><text id="SvgjsText1081" font-family="微软雅黑" text-anchor="middle" font-size="13px" width="92" fill="#323232" font-weight="400" align="top" anchor="middle" family="微软雅黑" size="13px" weight="400" font-style="" y="347.33967830112994" transform="rotate(0)"><tspan id="SvgjsTspan1082" dy="16" x="149.72257653061234"><tspan id="SvgjsTspan1083" style="text-decoration:;">不存在用户信息</tspan></tspan></text></g><g id="SvgjsG1084" transform="translate(98.39285714285718,475.95237840924943)"><path id="SvgjsPath1085" d="M 0 0L 100 0L 100 70L 0 70Z" stroke="#323232" stroke-width="2" fill-opacity="1" fill="#ffffff"></path><g id="SvgjsG1086"><text id="SvgjsText1087" font-family="微软雅黑" text-anchor="middle" font-size="13px" width="26" fill="#323232" font-weight="400" align="middle" anchor="middle" family="微软雅黑" size="13px" weight="400" font-style="" y="25.05" transform="rotate(0)"><tspan id="SvgjsTspan1088" dy="16" x="50"><tspan id="SvgjsTspan1089" style="text-decoration:;">注册</tspan></tspan></text></g></g><g id="SvgjsG1090"><path id="SvgjsPath1091" d="M149.82142857142858 439.68253544398704L149.82142857142858 457.8174569266182L148.3928571428572 457.8174569266182L148.3928571428572 475.95237840924943" stroke="#323232" stroke-width="2" fill="none" marker-end="url(#SvgjsMarker1092)"></path></g><g id="SvgjsG1094" transform="translate(98.39285714285721,579.3492033822196)"><path id="SvgjsPath1095" d="M 0 0L 100 0L 100 70L 0 70Z" stroke="#323232" stroke-width="2" fill-opacity="1" fill="#ffffff"></path><g id="SvgjsG1096"><text id="SvgjsText1097" font-family="微软雅黑" text-anchor="middle" font-size="13px" width="26" fill="#323232" font-weight="400" align="middle" anchor="middle" family="微软雅黑" size="13px" weight="400" font-style="" y="25.05" transform="rotate(0)"><tspan id="SvgjsTspan1098" dy="16" x="50"><tspan id="SvgjsTspan1099" style="text-decoration:;">登录</tspan></tspan></text></g></g><g id="SvgjsG1100"><path id="SvgjsPath1101" d="M148.3928571428572 545.9523784092494L148.3928571428572 562.6507908957344L148.39285714285722 562.6507908957344L148.39285714285722 579.3492033822196" stroke="#323232" stroke-width="2" fill="none" marker-end="url(#SvgjsMarker1102)"></path></g><g id="SvgjsG1104"><path id="SvgjsPath1105" d="M104.62372448979599 309.89682115827287L68.39285714285721 309.89682115827287L68.39285714285721 630.3492033822196L98.39285714285721 630.3492033822196" stroke="#323232" stroke-width="2" fill="none" marker-end="url(#SvgjsMarker1106)"></path><rect id="SvgjsRect1108" width="52" height="16" x="42.39285714285721" y="459.00757859677685" fill="#ffffff"></rect><text id="SvgjsText1109" font-family="微软雅黑" text-anchor="middle" font-size="13px" width="52" fill="#323232" font-weight="400" align="top" anchor="middle" family="微软雅黑" size="13px" weight="400" font-style="" y="457.05757859677686" transform="rotate(0)"><tspan id="SvgjsTspan1110" dy="16" x="68.39285714285721"><tspan id="SvgjsTspan1111" style="text-decoration:;">存在用户</tspan></tspan></text></g><g id="SvgjsG1112" transform="translate(98.5235969387756,679.3253925868443)"><path id="SvgjsPath1113" d="M 0 0L 100 0L 100 70L 0 70Z" stroke="#323232" stroke-width="2" fill-opacity="1" fill="#ffffff"></path><g id="SvgjsG1114"><text id="SvgjsText1115" font-family="微软雅黑" text-anchor="middle" font-size="13px" width="67" fill="#323232" font-weight="400" align="middle" anchor="middle" family="微软雅黑" size="13px" weight="400" font-style="" y="25.05" transform="rotate(0)"><tspan id="SvgjsTspan1116" dy="16" x="50"><tspan id="SvgjsTspan1117" style="text-decoration:;">写入cookie</tspan></tspan></text></g></g><g id="SvgjsG1118" transform="translate(393.2324998245593,158.15872519356867)"><path id="SvgjsPath1119" d="M 0 30.52250262798862L 59.57982116962677 0L 119.15964233925354 30.52250262798862L 59.57982116962677 61.04500525597724L 0 30.52250262798862Z" stroke="#323232" stroke-width="2" fill-opacity="1" fill="#ffffff"></path><g id="SvgjsG1120"><text id="SvgjsText1121" font-family="微软雅黑" text-anchor="middle" font-size="13px" width="91" fill="#323232" font-weight="400" align="middle" anchor="middle" family="微软雅黑" size="13px" weight="400" font-style="" y="12.57250262798862" transform="rotate(0)"><tspan id="SvgjsTspan1122" dy="16" x="60"><tspan id="SvgjsTspan1123" style="text-decoration:;">是否存在个性配</tspan></tspan><tspan id="SvgjsTspan1124" dy="16" x="60"><tspan id="SvgjsTspan1125" style="text-decoration:;">置文件</tspan></tspan></text></g></g><g id="SvgjsG1126" transform="translate(370.1545226573944,260.7536540652119)"><path id="SvgjsPath1127" d="M 0 0L 169.08532161048745 0L 169.08532161048745 44.814789300907336L 0 44.814789300907336Z" stroke="#323232" stroke-width="2" fill-opacity="1" fill="#ffffff"></path><g id="SvgjsG1128"><text id="SvgjsText1129" font-family="微软雅黑" text-anchor="middle" font-size="13px" width="39" fill="#323232" font-weight="400" align="middle" anchor="middle" family="微软雅黑" size="13px" weight="400" font-style="" y="12.457394650453669" transform="rotate(0)"><tspan id="SvgjsTspan1130" dy="16" x="85"><tspan id="SvgjsTspan1131" style="text-decoration:;">初始化</tspan></tspan></text></g></g><g id="SvgjsG1132"><path id="SvgjsPath1133" d="M452.81232099418594 219.20373044954613L452.81232099418594 239.978692257379L454.6971834626381 239.978692257379L454.6971834626381 260.7536540652119" stroke="#323232" stroke-width="2" fill="none" marker-end="url(#SvgjsMarker1134)"></path><rect id="SvgjsRect1136" width="78" height="16" x="414.75475222841203" y="231.978692257379" fill="#ffffff"></rect><text id="SvgjsText1137" font-family="微软雅黑" text-anchor="middle" font-size="13px" width="77" fill="#323232" font-weight="400" align="top" anchor="middle" family="微软雅黑" size="13px" weight="400" font-style="" y="230.02869225737902" transform="rotate(0)"><tspan id="SvgjsTspan1138" dy="16" x="453.75475222841203"><tspan id="SvgjsTspan1139" style="text-decoration:;">存在设置文件</tspan></tspan></text></g><g id="SvgjsG1140"><path id="SvgjsPath1141" d="M512.3921421638129 188.6812278215573L569.2398442678818 188.6812278215573L569.2398442678818 283.16104871566546L539.2398442678818 283.16104871566546" stroke="#323232" stroke-width="2" fill="none" marker-end="url(#SvgjsMarker1142)"></path><rect id="SvgjsRect1144" width="78" height="16" x="530.2398442678818" y="214.49728721657686" fill="#ffffff"></rect><text id="SvgjsText1145" font-family="微软雅黑" text-anchor="middle" font-size="13px" width="77" fill="#323232" font-weight="400" align="top" anchor="middle" family="微软雅黑" size="13px" weight="400" font-style="" y="212.54728721657688" transform="rotate(0)"><tspan id="SvgjsTspan1146" dy="16" x="569.2398442678818"><tspan id="SvgjsTspan1147" style="text-decoration:;">采用默认配置</tspan></tspan></text></g><g id="SvgjsG1148" transform="translate(659.5833129882812,92.77777862548828)"><path id="SvgjsPath1149" d="M 16.666666666666668 0L 83.33333333333333 0C 105.55555555555556 0 105.55555555555556 50 83.33333333333333 50L 16.666666666666668 50C -5.555555555555556 50 -5.555555555555556 0 16.666666666666668 0Z" stroke="#323232" stroke-width="2" fill-opacity="1" fill="#ffffff"></path><g id="SvgjsG1150"><text id="SvgjsText1151" font-family="微软雅黑" text-anchor="middle" font-size="13px" width="26" fill="#323232" font-weight="400" align="middle" anchor="middle" family="微软雅黑" size="13px" weight="400" font-style="" y="15.05" transform="rotate(0)"><tspan id="SvgjsTspan1152" dy="16" x="50"><tspan id="SvgjsTspan1153" style="text-decoration:;">启动</tspan></tspan></text></g></g><g id="SvgjsG1154" transform="translate(662.1547415597098,166.91722714171124)"><path id="SvgjsPath1155" d="M 0 0L 100 0L 100 70L 0 70Z" stroke="#323232" stroke-width="2" fill-opacity="1" fill="#ffffff"></path><g id="SvgjsG1156"><text id="SvgjsText1157" font-family="微软雅黑" text-anchor="middle" font-size="13px" width="65" fill="#323232" font-weight="400" align="middle" anchor="middle" family="微软雅黑" size="13px" weight="400" font-style="" y="25.05" transform="rotate(0)"><tspan id="SvgjsTspan1158" dy="16" x="50"><tspan id="SvgjsTspan1159" style="text-decoration:;">多线程创建</tspan></tspan></text></g></g><g id="SvgjsG1160" transform="translate(662.1547415597098,264.274372178681)"><path id="SvgjsPath1161" d="M 0 0L 100 0L 0 0M 0 70L 100 70L 0 70Z" stroke="#323232" stroke-width="2" fill-opacity="1" fill="#ffffff"></path><path id="SvgjsPath1162" d="M 0 0L 100 0L 100 70L 0 70L 0 0Z" stroke="none" fill="none"></path><g id="SvgjsG1163"><text id="SvgjsText1164" font-family="微软雅黑" text-anchor="middle" font-size="13px" width="0" fill="#323232" font-weight="400" align="middle" anchor="middle" family="微软雅黑" size="13px" weight="400" font-style="" y="25.05" transform="rotate(0)"></text></g></g><g id="SvgjsG1165"><path id="SvgjsPath1166" d="M712.1547415597098 236.91722714171124L712.1547415597098 250.59579966019612L712.1547415597098 250.59579966019612L712.1547415597098 264.274372178681" stroke="#323232" stroke-width="2" fill="none" marker-end="url(#SvgjsMarker1167)"></path></g><g id="SvgjsG1169" transform="translate(662.1547415597098,367.92063576834545)"><path id="SvgjsPath1170" d="M 0 0L 100 0L 100 70L 0 70Z" stroke="#323232" stroke-width="2" fill-opacity="1" fill="#ffffff"></path><g id="SvgjsG1171"><text id="SvgjsText1172" font-family="微软雅黑" text-anchor="middle" font-size="13px" width="26" fill="#323232" font-weight="400" align="middle" anchor="middle" family="微软雅黑" size="13px" weight="400" font-style="" y="25.05" transform="rotate(0)"><tspan id="SvgjsTspan1173" dy="16" x="50"><tspan id="SvgjsTspan1174" style="text-decoration:;">监听</tspan></tspan></text></g></g><g id="SvgjsG1175"><path id="SvgjsPath1176" d="M712.1547415597098 334.274372178681L712.1547415597098 351.0975039735132L712.1547415597098 351.0975039735132L712.1547415597098 367.92063576834545" stroke="#323232" stroke-width="2" fill="none" marker-end="url(#SvgjsMarker1177)"></path></g><g id="SvgjsG1179" transform="translate(677.0760243585438,473.68027060372475)"><path id="SvgjsPath1180" d="M 35 70C -11.666666666666664 70 -11.666666666666664 0 35 0C 81.66666666666666 0 81.66666666666666 70 35 70L 70 70Z" stroke="#323232" stroke-width="2" fill-opacity="1" fill="#ffffff"></path><g id="SvgjsG1181"><text id="SvgjsText1182" font-family="微软雅黑" text-anchor="middle" font-size="13px" width="0" fill="#323232" font-weight="400" align="middle" anchor="middle" family="微软雅黑" size="13px" weight="400" font-style="" y="25.05" transform="rotate(0)"></text></g></g><g id="SvgjsG1183"><path id="SvgjsPath1184" d="M712.1547415597098 437.92063576834545L712.1547415597098 455.8004531860351L712.0760243585438 455.8004531860351L712.0760243585438 473.68027060372475" stroke="#323232" stroke-width="2" fill="none" marker-end="url(#SvgjsMarker1185)"></path></g><g id="SvgjsG1187" transform="translate(402.6859065310167,86.0158680507115)"><path id="SvgjsPath1188" d="M 16.666666666666668 0L 83.33333333333333 0C 105.55555555555556 0 105.55555555555556 50 83.33333333333333 50L 16.666666666666668 50C -5.555555555555556 50 -5.555555555555556 0 16.666666666666668 0Z" stroke="#323232" stroke-width="2" fill-opacity="1" fill="#ffffff"></path><g id="SvgjsG1189"><text id="SvgjsText1190" font-family="微软雅黑" text-anchor="middle" font-size="13px" width="26" fill="#323232" font-weight="400" align="middle" anchor="middle" family="微软雅黑" size="13px" weight="400" font-style="" y="15.05" transform="rotate(0)"><tspan id="SvgjsTspan1191" dy="16" x="50"><tspan id="SvgjsTspan1192" style="text-decoration:;">开始</tspan></tspan></text></g></g><g id="SvgjsG1193"><path id="SvgjsPath1194" d="M452.6859065310167 136.0158680507115L452.6859065310167 147.0872966221401L452.81232099418605 147.0872966221401L452.81232099418605 158.15872519356867" stroke="#323232" stroke-width="2" fill="none" marker-end="url(#SvgjsMarker1195)"></path></g><g id="SvgjsG1197"><path id="SvgjsPath1198" d="M198.39285714285717 510.9523784092494L437.7344407507005 510.9523784092494L437.7344407507005 508.6802706037247L677.0760243585438 508.6802706037247" stroke="#323232" stroke-width="2" fill="none" marker-end="url(#SvgjsMarker1199)"></path></g><g id="SvgjsG1201" transform="matrix(6.123233995736766e-17,1,-1,6.123233995736766e-17,833.2658879201841,582.4444637084099)"><path id="SvgjsPath1202" d="M 0 0L 250.79365321568048 0L 250.79365321568048 240.46370856218778L 0 240.46370856218778L 0 0ZM 20 0L 20 240.46370856218778M 230.79365321568048 0L 230.79365321568048 240.46370856218778" stroke="#323232" stroke-width="2" fill-opacity="1" fill="#ffffff"></path><g id="SvgjsG1203"><text id="SvgjsText1204" font-family="微软雅黑" text-anchor="middle" font-size="13px" width="0" fill="#323232" font-weight="400" align="middle" anchor="middle" family="微软雅黑" size="13px" weight="400" font-style="" y="110.28185428109389" transform="rotate(0)"></text></g></g><g id="SvgjsG1205"><path id="SvgjsPath1206" d="M712.0760243585438 543.6802706037247L712.0760243585438 563.0623550415039L713.0340061402233 563.0623550415039L713.0340061402233 582.444439479283" stroke="#323232" stroke-width="2" fill="none" marker-end="url(#SvgjsMarker1207)"></path></g><g id="SvgjsG1209" transform="translate(626.1230032784599,612.523806980678)"><path id="SvgjsPath1210" d="M 0 0L 176.67914858066933 0L 176.67914858066933 43.571428571428555L 0 43.571428571428555Z" stroke="#323232" stroke-width="2" fill-opacity="1" fill="#ffffff"></path><g id="SvgjsG1211"><text id="SvgjsText1212" font-family="微软雅黑" text-anchor="middle" font-size="13px" width="77" fill="#323232" font-weight="400" align="middle" anchor="middle" family="微软雅黑" size="13px" weight="400" font-style="" y="11.835714285714278" transform="rotate(0)"><tspan id="SvgjsTspan1213" dy="16" x="88.5"><tspan id="SvgjsTspan1214" style="text-decoration:;">解析http请求</tspan></tspan></text></g></g><g id="SvgjsG1215" transform="translate(629.9450090019865,665.3809498378209)"><path id="SvgjsPath1216" d="M 0 0L 169.03513713361622 0L 169.03513713361622 25L 0 25Z" stroke="#323232" stroke-width="2" fill-opacity="1" fill="#ffffff"></path><g id="SvgjsG1217"><text id="SvgjsText1218" font-family="微软雅黑" text-anchor="middle" font-size="13px" width="52" fill="#323232" font-weight="400" align="middle" anchor="middle" family="微软雅黑" size="13px" weight="400" font-style="" y="2.55" transform="rotate(0)"><tspan id="SvgjsTspan1219" dy="16" x="85"><tspan id="SvgjsTspan1220" style="text-decoration:;">处理请求</tspan></tspan></text></g></g><g id="SvgjsG1221" transform="translate(665.467379748836,701.8095212663925)"><path id="SvgjsPath1222" d="M 15 0L 88.33333333333333 0C 103.18181818181819 0 103.18181818181819 70 88.33333333333333 70L 15 70C -5 70 -5 0 15 0ZM 88.33333333333333 0C 73.75 0 73.75 70 88.33333333333333 70C 73.75 70 73.75 0 88.33333333333333 0" stroke="#323232" stroke-width="2" fill-opacity="1" fill="#ffffff"></path><g id="SvgjsG1223"><text id="SvgjsText1224" font-family="微软雅黑" text-anchor="middle" font-size="13px" width="0" fill="#323232" font-weight="400" align="middle" anchor="middle" family="微软雅黑" size="13px" weight="400" font-style="" y="25.05" transform="rotate(0)"></text></g></g><g id="SvgjsG1225"><path id="SvgjsPath1226" d="M714.4625775687946 656.0952355521066L714.4625775687946 660.7380926949638L714.4625775687946 660.7380926949638L714.4625775687946 665.3809498378209" stroke="#323232" stroke-width="2" fill="none" marker-end="url(#SvgjsMarker1227)"></path></g><g id="SvgjsG1229" transform="translate(608.9801461356027,781.8095212663924)"><path id="SvgjsPath1230" d="M 0 0L 221.90604216016777 0L 221.90604216016777 31.428571428571445L 0 31.428571428571445Z" stroke="#323232" stroke-width="2" fill-opacity="1" fill="#ffffff"></path><g id="SvgjsG1231"><text id="SvgjsText1232" font-family="微软雅黑" text-anchor="middle" font-size="13px" width="52" fill="#323232" font-weight="400" align="middle" anchor="middle" family="微软雅黑" size="13px" weight="400" font-style="" y="5.764285714285722" transform="rotate(0)"><tspan id="SvgjsTspan1233" dy="16" x="111"><tspan id="SvgjsTspan1234" style="text-decoration:;">返回请求</tspan></tspan></text></g></g><g id="SvgjsG1235"><path id="SvgjsPath1236" d="M592.8021518591293 707.8412660871236L395.5975045009932 707.8412660871236L395.5975045009932 510.9523784092494L198.39285714285717 510.9523784092494" stroke="#323232" stroke-width="2" fill="none" marker-end="url(#SvgjsMarker1237)"></path></g><g id="SvgjsG1239"><path id="SvgjsPath1240" d="M592.8021518591293 707.8412660871236L395.59750450099324 707.8412660871236L395.59750450099324 614.3492033822196L198.39285714285722 614.3492033822196" stroke="#323232" stroke-width="2" fill="none" marker-end="url(#SvgjsMarker1241)"></path></g><g id="SvgjsG1243"><path id="SvgjsPath1244" d="M148.39285714285722 649.3492033822196L148.39285714285722 664.3372979845319L148.5235969387756 664.3372979845319L148.5235969387756 679.3253925868443" stroke="#323232" stroke-width="2" fill="none" marker-end="url(#SvgjsMarker1245)"></path></g><g id="SvgjsG1247" transform="translate(411.24558729811133,317.72221755981445)"><path id="SvgjsPath1248" d="M 0 35L 45 0L 90 35L 45 70L 0 35Z" stroke="#323232" stroke-width="2" fill-opacity="1" fill="#ffffff"></path><g id="SvgjsG1249"><text id="SvgjsText1250" font-family="微软雅黑" text-anchor="middle" font-size="13px" width="65" fill="#323232" font-weight="400" align="middle" anchor="middle" family="微软雅黑" size="13px" weight="400" font-style="" y="17.05" transform="rotate(0)"><tspan id="SvgjsTspan1251" dy="16" x="45"><tspan id="SvgjsTspan1252" style="text-decoration:;">存在缓存文</tspan></tspan><tspan id="SvgjsTspan1253" dy="16" x="45"><tspan id="SvgjsTspan1254" style="text-decoration:;">件</tspan></tspan></text></g></g><g id="SvgjsG1255"><path id="SvgjsPath1256" d="M454.6971834626381 305.56844336611925L454.6971834626381 311.64533046296685L456.24558729811133 311.64533046296685L456.24558729811133 317.72221755981445" stroke="#323232" stroke-width="2" fill="none" marker-end="url(#SvgjsMarker1257)"></path></g><g id="SvgjsG1259" transform="translate(366.9166564941406,403.68027060372475)"><path id="SvgjsPath1260" d="M 0 0L 171.53850007375218 0L 171.53850007375218 57.7919469560897L 0 57.7919469560897Z" stroke="#323232" stroke-width="2" fill-opacity="1" fill="#ffffff"></path><g id="SvgjsG1261"><text id="SvgjsText1262" font-family="微软雅黑" text-anchor="middle" font-size="13px" width="52" fill="#323232" font-weight="400" align="middle" anchor="middle" family="微软雅黑" size="13px" weight="400" font-style="" y="18.945973478044852" transform="rotate(0)"><tspan id="SvgjsTspan1263" dy="16" x="86"><tspan id="SvgjsTspan1264" style="text-decoration:;">加载数据</tspan></tspan></text></g></g><g id="SvgjsG1265"><path id="SvgjsPath1266" d="M456.24558729811133 387.72221755981445L456.24558729811133 395.7012440817696L452.6859065310167 395.7012440817696L452.6859065310167 403.68027060372475" stroke="#323232" stroke-width="2" fill="none" marker-end="url(#SvgjsMarker1267)"></path></g><g id="SvgjsG1269"><path id="SvgjsPath1270" d="M501.24558729811133 352.72221755981445L589.1608058283275 352.72221755981445L589.1608058283275 508.6802706037247L677.0760243585438 508.6802706037247" stroke="#323232" stroke-width="2" fill="none" marker-end="url(#SvgjsMarker1271)"></path><rect id="SvgjsRect1273" width="52" height="16" x="563.1608058283275" y="422.70124408176963" fill="#ffffff"></rect><text id="SvgjsText1274" font-family="微软雅黑" text-anchor="middle" font-size="13px" width="52" fill="#323232" font-weight="400" align="top" anchor="middle" family="微软雅黑" size="13px" weight="400" font-style="" y="420.75124408176964" transform="rotate(0)"><tspan id="SvgjsTspan1275" dy="16" x="589.1608058283275"><tspan id="SvgjsTspan1276" style="text-decoration:;">请求数据</tspan></tspan></text></g><g id="SvgjsG1277"><path id="SvgjsPath1278" d="M592.8021518591293 707.8412660871236L565.628654213511 707.8412660871236L565.628654213511 432.5762440817696L538.4551565678928 432.5762440817696" stroke="#323232" stroke-width="2" fill="none" marker-end="url(#SvgjsMarker1279)"></path></g><g id="SvgjsG1281"><path id="SvgjsPath1282" d="M715.467379748836 771.8095212663925L715.467379748836 776.8095212663925L719.9331672156866 776.8095212663925L719.9331672156866 781.8095212663924" stroke="#323232" stroke-width="2" fill="none" marker-end="url(#SvgjsMarker1283)"></path></g><g id="SvgjsG1285"><path id="SvgjsPath1286" d="M709.5833129882812 142.77777862548828L709.5833129882812 154.84750288359976L712.1547415597098 154.84750288359976L712.1547415597098 166.91722714171124" stroke="#323232" stroke-width="2" fill="none" marker-end="url(#SvgjsMarker1287)"></path></g><g id="SvgjsG1289" transform="translate(918.4444427490234,623.7936488560268)"><path id="SvgjsPath1290" d="M 0 0L 100 0L 100 70L 0 70Z" stroke="#323232" stroke-width="2" fill-opacity="1" fill="#ffffff"></path><g id="SvgjsG1291"><text id="SvgjsText1292" font-family="微软雅黑" text-anchor="middle" font-size="13px" width="52" fill="#323232" font-weight="400" align="middle" anchor="middle" family="微软雅黑" size="13px" weight="400" font-style="" y="25.05" transform="rotate(0)"><tspan id="SvgjsTspan1293" dy="16" x="50"><tspan id="SvgjsTspan1294" style="text-decoration:;">记录日志</tspan></tspan></text></g></g><g id="SvgjsG1295"><path id="SvgjsPath1296" d="M802.8021518591293 634.3095212663923L860.6232973040763 634.3095212663923L860.6232973040763 658.7936488560268L918.4444427490234 658.7936488560268" stroke="#323232" stroke-width="2" fill="none" marker-end="url(#SvgjsMarker1297)"></path></g><g id="SvgjsG1299"><path id="SvgjsPath1300" d="M798.9801461356027 677.8809498378209L858.9801461356027 677.8809498378209L858.9801461356027 673.0793631417412L918.9801461356027 673.0793631417412" stroke="#323232" stroke-width="2" fill="none" marker-end="url(#SvgjsMarker1301)"></path></g><g id="SvgjsG1303" transform="translate(917.6026106853873,717.7618985857282)"><path id="SvgjsPath1304" d="M 15 0L 88.33333333333333 0C 103.18181818181819 0 103.18181818181819 70 88.33333333333333 70L 15 70C -5 70 -5 0 15 0ZM 88.33333333333333 0C 73.75 0 73.75 70 88.33333333333333 70C 73.75 70 73.75 0 88.33333333333333 0" stroke="#323232" stroke-width="2" fill-opacity="1" fill="#ffffff"></path><g id="SvgjsG1305"><text id="SvgjsText1306" font-family="微软雅黑" text-anchor="middle" font-size="13px" width="0" fill="#323232" font-weight="400" align="middle" anchor="middle" family="微软雅黑" size="13px" weight="400" font-style="" y="25.05" transform="rotate(0)"></text></g></g><g id="SvgjsG1307"><path id="SvgjsPath1308" d="M968.4444427490234 693.7936488560268L968.4444427490234 705.7777737208776L967.6026106853873 705.7777737208776L967.6026106853873 717.7618985857282" stroke="#323232" stroke-width="2" fill="none" marker-end="url(#SvgjsMarker1309)"></path></g><g id="SvgjsG1311" transform="translate(918.4444427490234,834.9047557285854)"><path id="SvgjsPath1312" d="M 16.666666666666668 0L 83.33333333333333 0C 105.55555555555556 0 105.55555555555556 50 83.33333333333333 50L 16.666666666666668 50C -5.555555555555556 50 -5.555555555555556 0 16.666666666666668 0Z" stroke="#323232" stroke-width="2" fill-opacity="1" fill="#ffffff"></path><g id="SvgjsG1313"><text id="SvgjsText1314" font-family="微软雅黑" text-anchor="middle" font-size="13px" width="26" fill="#323232" font-weight="400" align="middle" anchor="middle" family="微软雅黑" size="13px" weight="400" font-style="" y="15.05" transform="rotate(0)"><tspan id="SvgjsTspan1315" dy="16" x="50"><tspan id="SvgjsTspan1316" style="text-decoration:;">结束</tspan></tspan></text></g></g><g id="SvgjsG1317"><path id="SvgjsPath1318" d="M967.6026106853873 787.7618985857282L967.6026106853873 811.3333271571569L968.4444427490234 811.3333271571569L968.4444427490234 834.9047557285854" stroke="#323232" stroke-width="2" fill="none" marker-end="url(#SvgjsMarker1319)"></path></g><g id="SvgjsG1321"><path id="SvgjsPath1322" d="M1017.6026106853874 752.7618985857282L1048.4444427490234 752.7618985857282L1048.4444427490234 658.7936488560268L1018.4444427490234 658.7936488560268" stroke="#323232" stroke-width="2" fill="none" marker-end="url(#SvgjsMarker1323)"></path></g></svg>